EXTENTS,1
0.000000,120.000000,0.000000,90.000000
LIMITS,1
0.000000,120.000000,0.000000,90.000000
BASE,1
0.000000,0.000000
DWGVIEW,1
60.000000,45.000000,97.200000
MODERES,1
0,1.000000
MODEGRID,1
0,0.000000
MODEORTHO,1
0
MODEFILL,1
1
TXTSIZE,1
0.200000
TRACEWID,1
0.050000
LAYER,1
1
LAYERC,1
255,7,251,13,33,153,113,9,31,255,255,255,255,255,255,255
255,255,255,255,255,255,255,255,255,255,255,255,255,255,255,255
255,255,255,255,255,255,255,255,255,255,255,255,255,255,255,255
255,255,255,255,255,255,255,255,255,255,255,255,255,255,255,255
255,255,255,255,255,255,255,255,255,255,255,255,255,255,255,255
255,255,255,255,255,255,255,255,255,255,255,255,255,255,255,255
255,255,255,255,255,255,255,255,255,255,255,255,255,255,255,255
255,255,255,255,255,255,255,255,255,255,255,255,255,255,255,255
SOLID,1
0.000000,0.000000,120.000000,0.000000
0.000000,90.000000,120.000000,90.000000
SOLID,2
8.000000,8.000000,112.000000,8.000000
8.000000,82.000000,112.000000,82.000000
SOLID,1
10.000000,10.000000,110.000000,10.000000
10.000000,80.000000,110.000000,80.000000
SOLID,3
15.000000,42.000000,54.000000,42.000000
15.000000,75.000000,54.000000,75.000000
SOLID,4
15.000000,15.000000,54.000000,15.000000
15.000000,40.000000,54.000000,40.000000
SOLID,5
57.000000,15.000000,105.000000,15.000000
57.000000,75.000000,105.000000,75.000000
SOLID,8
57.000000,46.000000,81.000000,46.000000
80.884430,48.352410,80.884430,48.352410
SOLID,8
57.000000,46.000000,80.884430,48.352410
80.538850,50.682170,80.538850,50.682170
SOLID,8
57.000000,46.000000,80.538850,50.682170
79.966570,52.966830,79.966570,52.966830
SOLID,8
57.000000,46.000000,79.966570,52.966830
79.173110,55.184400,79.173110,55.184400
SOLID,8
57.000000,46.000000,79.173110,55.184400
78.166110,57.313520,78.166110,57.313520
SOLID,8
57.000000,46.000000,78.166110,57.313520
76.955270,59.333690,76.955270,59.333690
SOLID,8
57.000000,46.000000,76.955270,59.333690
75.552250,61.225440,75.552250,61.225440
SOLID,8
57.000000,46.000000,75.552250,61.225440
73.970560,62.970560,73.970560,62.970560
SOLID,8
57.000000,46.000000,73.970560,62.970560
72.225440,64.552250,72.225440,64.552250
SOLID,8
57.000000,46.000000,72.225440,64.552250
70.333690,65.955270,70.333690,65.955270
SOLID,8
57.000000,46.000000,70.333690,65.955270
68.313520,67.166110,68.313520,67.166110
SOLID,8
57.000000,46.000000,68.313520,67.166110
66.184400,68.173110,66.184400,68.173110
SOLID,8
57.000000,46.000000,66.184400,68.173110
63.966830,68.966570,63.966830,68.966570
SOLID,8
57.000000,46.000000,63.966830,68.966570
61.682170,69.538850,61.682170,69.538850
SOLID,8
57.000000,46.000000,61.682170,69.538850
59.352410,69.884430,59.352410,69.884430
SOLID,8
57.000000,46.000000,59.352410,69.884430
57.000000,70.000000,57.000000,70.000000
SOLID,8
57.000000,46.000000,57.000000,70.000000
54.647590,69.884430,54.647590,69.884430
SOLID,8
57.000000,46.000000,54.647590,69.884430
52.317830,69.538850,52.317830,69.538850
SOLID,8
57.000000,46.000000,52.317830,69.538850
50.033170,68.966570,50.033170,68.966570
SOLID,8
57.000000,46.000000,50.033170,68.966570
47.815600,68.173110,47.815600,68.173110
SOLID,8
57.000000,46.000000,47.815600,68.173110
45.686480,67.166110,45.686480,67.166110
SOLID,8
57.000000,46.000000,45.686480,67.166110
43.666310,65.955270,43.666310,65.955270
SOLID,8
57.000000,46.000000,43.666310,65.955270
41.774560,64.552250,41.774560,64.552250
SOLID,8
57.000000,46.000000,41.774560,64.552250
40.029440,62.970560,40.029440,62.970560
SOLID,8
57.000000,46.000000,40.029440,62.970560
38.447750,61.225440,38.447750,61.225440
SOLID,8
57.000000,46.000000,38.447750,61.225440
37.044730,59.333690,37.044730,59.333690
SOLID,8
57.000000,46.000000,37.044730,59.333690
35.833890,57.313520,35.833890,57.313520
SOLID,8
57.000000,46.000000,35.833890,57.313520
34.826890,55.184400,34.826890,55.184400
SOLID,8
57.000000,46.000000,34.826890,55.184400
34.033430,52.966830,34.033430,52.966830
SOLID,8
57.000000,46.000000,34.033430,52.966830
33.461150,50.682170,33.461150,50.682170
SOLID,8
57.000000,46.000000,33.461150,50.682170
33.115570,48.352410,33.115570,48.352410
SOLID,8
57.000000,46.000000,33.115570,48.352410
33.000000,46.000000,33.000000,46.000000
SOLID,8
57.000000,46.000000,33.000000,46.000000
33.115570,43.647590,33.115570,43.647590
SOLID,8
57.000000,46.000000,33.115570,43.647590
33.461150,41.317830,33.461150,41.317830
SOLID,8
57.000000,46.000000,33.461150,41.317830
34.033430,39.033170,34.033430,39.033170
SOLID,8
57.000000,46.000000,34.033430,39.033170
34.826890,36.815600,34.826890,36.815600
SOLID,8
57.000000,46.000000,34.826890,36.815600
35.833890,34.686480,35.833890,34.686480
SOLID,8
57.000000,46.000000,35.833890,34.686480
37.044730,32.666310,37.044730,32.666310
SOLID,8
57.000000,46.000000,37.044730,32.666310
38.447750,30.774560,38.447750,30.774560
SOLID,8
57.000000,46.000000,38.447750,30.774560
40.029440,29.029440,40.029440,29.029440
SOLID,8
57.000000,46.000000,40.029440,29.029440
41.774560,27.447750,41.774560,27.447750
SOLID,8
57.000000,46.000000,41.774560,27.447750
43.666310,26.044730,43.666310,26.044730
SOLID,8
57.000000,46.000000,43.666310,26.044730
45.686480,24.833890,45.686480,24.833890
SOLID,8
57.000000,46.000000,45.686480,24.833890
47.815600,23.826890,47.815600,23.826890
SOLID,8
57.000000,46.000000,47.815600,23.826890
50.033170,23.033430,50.033170,23.033430
SOLID,8
57.000000,46.000000,50.033170,23.033430
52.317830,22.461150,52.317830,22.461150
SOLID,8
57.000000,46.000000,52.317830,22.461150
54.647590,22.115570,54.647590,22.115570
SOLID,8
57.000000,46.000000,54.647590,22.115570
57.000000,22.000000,57.000000,22.000000
SOLID,8
57.000000,46.000000,57.000000,22.000000
59.352410,22.115570,59.352410,22.115570
SOLID,8
57.000000,46.000000,59.352410,22.115570
61.682170,22.461150,61.682170,22.461150
SOLID,8
57.000000,46.000000,61.682170,22.461150
63.966830,23.033430,63.966830,23.033430
SOLID,8
57.000000,46.000000,63.966830,23.033430
66.184400,23.826890,66.184400,23.826890
SOLID,8
57.000000,46.000000,66.184400,23.826890
68.313520,24.833890,68.313520,24.833890
SOLID,8
57.000000,46.000000,68.313520,24.833890
70.333690,26.044730,70.333690,26.044730
SOLID,8
57.000000,46.000000,70.333690,26.044730
72.225440,27.447750,72.225440,27.447750
SOLID,8
57.000000,46.000000,72.225440,27.447750
73.970560,29.029440,73.970560,29.029440
SOLID,8
57.000000,46.000000,73.970560,29.029440
75.552250,30.774560,75.552250,30.774560
SOLID,8
57.000000,46.000000,75.552250,30.774560
76.955270,32.666310,76.955270,32.666310
SOLID,8
57.000000,46.000000,76.955270,32.666310
78.166110,34.686480,78.166110,34.686480
SOLID,8
57.000000,46.000000,78.166110,34.686480
79.173110,36.815600,79.173110,36.815600
SOLID,8
57.000000,46.000000,79.173110,36.815600
79.966570,39.033170,79.966570,39.033170
SOLID,8
57.000000,46.000000,79.966570,39.033170
80.538850,41.317830,80.538850,41.317830
SOLID,8
57.000000,46.000000,80.538850,41.317830
80.884430,43.647590,80.884430,43.647590
SOLID,8
57.000000,46.000000,80.884430,43.647590
81.000000,46.000000,81.000000,46.000000
SOLID,1
57.000000,46.000000,72.000000,46.000000
71.871670,47.957890,71.871670,47.957890
SOLID,1
57.000000,46.000000,71.871670,47.957890
71.488890,49.882290,71.488890,49.882290
SOLID,1
57.000000,46.000000,71.488890,49.882290
70.858190,51.740250,70.858190,51.740250
SOLID,1
57.000000,46.000000,70.858190,51.740250
69.990380,53.500000,69.990380,53.500000
SOLID,1
57.000000,46.000000,69.990380,53.500000
68.900300,55.131420,68.900300,55.131420
SOLID,1
57.000000,46.000000,68.900300,55.131420
67.606600,56.606600,67.606600,56.606600
SOLID,1
57.000000,46.000000,67.606600,56.606600
66.131420,57.900300,66.131420,57.900300
SOLID,1
57.000000,46.000000,66.131420,57.900300
64.500000,58.990380,64.500000,58.990380
SOLID,1
57.000000,46.000000,64.500000,58.990380
62.740250,59.858190,62.740250,59.858190
SOLID,1
57.000000,46.000000,62.740250,59.858190
60.882290,60.488890,60.882290,60.488890
SOLID,1
57.000000,46.000000,60.882290,60.488890
58.957890,60.871670,58.957890,60.871670
SOLID,1
57.000000,46.000000,58.957890,60.871670
57.000000,61.000000,57.000000,61.000000
SOLID,1
57.000000,46.000000,57.000000,61.000000
55.042110,60.871670,55.042110,60.871670
SOLID,1
57.000000,46.000000,55.042110,60.871670
53.117710,60.488890,53.117710,60.488890
SOLID,1
57.000000,46.000000,53.117710,60.488890
51.259750,59.858190,51.259750,59.858190
SOLID,1
57.000000,46.000000,51.259750,59.858190
49.500000,58.990380,49.500000,58.990380
SOLID,1
57.000000,46.000000,49.500000,58.990380
47.868580,57.900300,47.868580,57.900300
SOLID,1
57.000000,46.000000,47.868580,57.900300
46.393400,56.606600,46.393400,56.606600
SOLID,1
57.000000,46.000000,46.393400,56.606600
45.099700,55.131420,45.099700,55.131420
SOLID,1
57.000000,46.000000,45.099700,55.131420
44.009620,53.500000,44.009620,53.500000
SOLID,1
57.000000,46.000000,44.009620,53.500000
43.141810,51.740250,43.141810,51.740250
SOLID,1
57.000000,46.000000,43.141810,51.740250
42.511110,49.882290,42.511110,49.882290
SOLID,1
57.000000,46.000000,42.511110,49.882290
42.128330,47.957890,42.128330,47.957890
SOLID,1
57.000000,46.000000,42.128330,47.957890
42.000000,46.000000,42.000000,46.000000
SOLID,1
57.000000,46.000000,42.000000,46.000000
42.128330,44.042110,42.128330,44.042110
SOLID,1
57.000000,46.000000,42.128330,44.042110
42.511110,42.117710,42.511110,42.117710
SOLID,1
57.000000,46.000000,42.511110,42.117710
43.141810,40.259750,43.141810,40.259750
SOLID,1
57.000000,46.000000,43.141810,40.259750
44.009620,38.500000,44.009620,38.500000
SOLID,1
57.000000,46.000000,44.009620,38.500000
45.099700,36.868580,45.099700,36.868580
SOLID,1
57.000000,46.000000,45.099700,36.868580
46.393400,35.393400,46.393400,35.393400
SOLID,1
57.000000,46.000000,46.393400,35.393400
47.868580,34.099700,47.868580,34.099700
SOLID,1
57.000000,46.000000,47.868580,34.099700
49.500000,33.009620,49.500000,33.009620
SOLID,1
57.000000,46.000000,49.500000,33.009620
51.259750,32.141810,51.259750,32.141810
SOLID,1
57.000000,46.000000,51.259750,32.141810
53.117710,31.511110,53.117710,31.511110
SOLID,1
57.000000,46.000000,53.117710,31.511110
55.042110,31.128330,55.042110,31.128330
SOLID,1
57.000000,46.000000,55.042110,31.128330
57.000000,31.000000,57.000000,31.000000
SOLID,1
57.000000,46.000000,57.000000,31.000000
58.957890,31.128330,58.957890,31.128330
SOLID,1
57.000000,46.000000,58.957890,31.128330
60.882290,31.511110,60.882290,31.511110
SOLID,1
57.000000,46.000000,60.882290,31.511110
62.740250,32.141810,62.740250,32.141810
SOLID,1
57.000000,46.000000,62.740250,32.141810
64.500000,33.009620,64.500000,33.009620
SOLID,1
57.000000,46.000000,64.500000,33.009620
66.131420,34.099700,66.131420,34.099700
SOLID,1
57.000000,46.000000,66.131420,34.099700
67.606600,35.393400,67.606600,35.393400
SOLID,1
57.000000,46.000000,67.606600,35.393400
68.900300,36.868580,68.900300,36.868580
SOLID,1
57.000000,46.000000,68.900300,36.868580
69.990380,38.500000,69.990380,38.500000
SOLID,1
57.000000,46.000000,69.990380,38.500000
70.858190,40.259750,70.858190,40.259750
SOLID,1
57.000000,46.000000,70.858190,40.259750
71.488890,42.117710,71.488890,42.117710
SOLID,1
57.000000,46.000000,71.488890,42.117710
71.871670,44.042110,71.871670,44.042110
SOLID,1
57.000000,46.000000,71.871670,44.042110
72.000000,46.000000,72.000000,46.000000
SOLID,6
69.000000,19.000000,101.000000,19.000000
69.000000,42.000000,101.000000,60.000000
SOLID,2
69.000000,19.000000,101.000000,19.000000
69.000000,48.000000,101.000000,29.000000
SOLID,1
22.000000,49.000000,43.000000,49.000000
22.000000,67.000000,43.000000,67.000000
SOLID,2
25.000000,52.000000,28.000000,52.000000
25.000000,64.000000,28.000000,64.000000
SOLID,2
34.000000,52.000000,37.000000,52.000000
34.000000,64.000000,37.000000,64.000000
LINE,2
20.000000,20.000000,20.000000,34.000000
LINE,2
27.000000,20.000000,27.000000,34.000000
LINE,2
34.000000,20.000000,34.000000,34.000000
LINE,2
41.000000,20.000000,41.000000,34.000000
LINE,2
48.000000,20.000000,48.000000,34.000000
LINE,1
61.000000,69.000000,100.000000,69.000000
LINE,1
61.000000,66.000000,100.000000,66.000000
LINE,1
61.000000,63.000000,79.000000,63.000000
SOLID,7
93.000000,43.000000,98.000000,43.000000
97.829630,44.294100,97.829630,44.294100
SOLID,7
93.000000,43.000000,97.829630,44.294100
97.330130,45.500000,97.330130,45.500000
SOLID,7
93.000000,43.000000,97.330130,45.500000
96.535530,46.535530,96.535530,46.535530
SOLID,7
93.000000,43.000000,96.535530,46.535530
95.500000,47.330130,95.500000,47.330130
SOLID,7
93.000000,43.000000,95.500000,47.330130
94.294100,47.829630,94.294100,47.829630
SOLID,7
93.000000,43.000000,94.294100,47.829630
93.000000,48.000000,93.000000,48.000000
SOLID,7
93.000000,43.000000,93.000000,48.000000
91.705900,47.829630,91.705900,47.829630
SOLID,7
93.000000,43.000000,91.705900,47.829630
90.500000,47.330130,90.500000,47.330130
SOLID,7
93.000000,43.000000,90.500000,47.330130
89.464470,46.535530,89.464470,46.535530
SOLID,7
93.000000,43.000000,89.464470,46.535530
88.669870,45.500000,88.669870,45.500000
SOLID,7
93.000000,43.000000,88.669870,45.500000
88.170370,44.294100,88.170370,44.294100
SOLID,7
93.000000,43.000000,88.170370,44.294100
88.000000,43.000000,88.000000,43.000000
SOLID,7
93.000000,43.000000,88.000000,43.000000
88.170370,41.705900,88.170370,41.705900
SOLID,7
93.000000,43.000000,88.170370,41.705900
88.669870,40.500000,88.669870,40.500000
SOLID,7
93.000000,43.000000,88.669870,40.500000
89.464470,39.464470,89.464470,39.464470
SOLID,7
93.000000,43.000000,89.464470,39.464470
90.500000,38.669870,90.500000,38.669870
SOLID,7
93.000000,43.000000,90.500000,38.669870
91.705900,38.170370,91.705900,38.170370
SOLID,7
93.000000,43.000000,91.705900,38.170370
93.000000,38.000000,93.000000,38.000000
SOLID,7
93.000000,43.000000,93.000000,38.000000
94.294100,38.170370,94.294100,38.170370
SOLID,7
93.000000,43.000000,94.294100,38.170370
95.500000,38.669870,95.500000,38.669870
SOLID,7
93.000000,43.000000,95.500000,38.669870
96.535530,39.464470,96.535530,39.464470
SOLID,7
93.000000,43.000000,96.535530,39.464470
97.330130,40.500000,97.330130,40.500000
SOLID,7
93.000000,43.000000,97.330130,40.500000
97.829630,41.705900,97.829630,41.705900
SOLID,7
93.000000,43.000000,97.829630,41.705900
98.000000,43.000000,98.000000,43.000000
SOLID,1
93.000000,43.000000,95.400000,43.000000
95.282540,43.741640,95.282540,43.741640
SOLID,1
93.000000,43.000000,95.282540,43.741640
94.941640,44.410680,94.941640,44.410680
SOLID,1
93.000000,43.000000,94.941640,44.410680
94.410680,44.941640,94.410680,44.941640
SOLID,1
93.000000,43.000000,94.410680,44.941640
93.741640,45.282540,93.741640,45.282540
SOLID,1
93.000000,43.000000,93.741640,45.282540
93.000000,45.400000,93.000000,45.400000
SOLID,1
93.000000,43.000000,93.000000,45.400000
92.258360,45.282540,92.258360,45.282540
SOLID,1
93.000000,43.000000,92.258360,45.282540
91.589320,44.941640,91.589320,44.941640
SOLID,1
93.000000,43.000000,91.589320,44.941640
91.058360,44.410680,91.058360,44.410680
SOLID,1
93.000000,43.000000,91.058360,44.410680
90.717460,43.741640,90.717460,43.741640
SOLID,1
93.000000,43.000000,90.717460,43.741640
90.600000,43.000000,90.600000,43.000000
SOLID,1
93.000000,43.000000,90.600000,43.000000
90.717460,42.258360,90.717460,42.258360
SOLID,1
93.000000,43.000000,90.717460,42.258360
91.058360,41.589320,91.058360,41.589320
SOLID,1
93.000000,43.000000,91.058360,41.589320
91.589320,41.058360,91.589320,41.058360
SOLID,1
93.000000,43.000000,91.589320,41.058360
92.258360,40.717460,92.258360,40.717460
SOLID,1
93.000000,43.000000,92.258360,40.717460
93.000000,40.600000,93.000000,40.600000
SOLID,1
93.000000,43.000000,93.000000,40.600000
93.741640,40.717460,93.741640,40.717460
SOLID,1
93.000000,43.000000,93.741640,40.717460
94.410680,41.058360,94.410680,41.058360
SOLID,1
93.000000,43.000000,94.410680,41.058360
94.941640,41.589320,94.941640,41.589320
SOLID,1
93.000000,43.000000,94.941640,41.589320
95.282540,42.258360,95.282540,42.258360
SOLID,1
93.000000,43.000000,95.282540,42.258360
95.400000,43.000000,95.400000,43.000000
