EXTENTS,1
0.000000,120.000000,0.000000,90.000000
LIMITS,1
0.000000,120.000000,0.000000,90.000000
BASE,1
0.000000,0.000000
DWGVIEW,1
60.000000,45.000000,97.200000
MODERES,1
0,1.000000
MODEGRID,1
0,0.000000
MODEORTHO,1
0
MODEFILL,1
1
TXTSIZE,1
0.200000
TRACEWID,1
0.050000
LAYER,1
1
LAYERC,1
255,9,7,253,31,115,151,43,95,91,254,251,11,255,255,255
255,255,255,255,255,255,255,255,255,255,255,255,255,255,255,255
255,255,255,255,255,255,255,255,255,255,255,255,255,255,255,255
255,255,255,255,255,255,255,255,255,255,255,255,255,255,255,255
255,255,255,255,255,255,255,255,255,255,255,255,255,255,255,255
255,255,255,255,255,255,255,255,255,255,255,255,255,255,255,255
255,255,255,255,255,255,255,255,255,255,255,255,255,255,255,255
255,255,255,255,255,255,255,255,255,255,255,255,255,255,255,255
SOLID,1
0.000000,0.000000,120.000000,0.000000
0.000000,90.000000,120.000000,90.000000
SOLID,12
102.000000,73.000000,111.000000,73.000000
110.827070,74.755810,110.827070,74.755810
SOLID,12
102.000000,73.000000,110.827070,74.755810
110.314920,76.444150,110.314920,76.444150
SOLID,12
102.000000,73.000000,110.314920,76.444150
109.483230,78.000130,109.483230,78.000130
SOLID,12
102.000000,73.000000,109.483230,78.000130
108.363960,79.363960,108.363960,79.363960
SOLID,12
102.000000,73.000000,108.363960,79.363960
107.000130,80.483230,107.000130,80.483230
SOLID,12
102.000000,73.000000,107.000130,80.483230
105.444150,81.314920,105.444150,81.314920
SOLID,12
102.000000,73.000000,105.444150,81.314920
103.755810,81.827070,103.755810,81.827070
SOLID,12
102.000000,73.000000,103.755810,81.827070
102.000000,82.000000,102.000000,82.000000
SOLID,12
102.000000,73.000000,102.000000,82.000000
100.244190,81.827070,100.244190,81.827070
SOLID,12
102.000000,73.000000,100.244190,81.827070
98.555850,81.314920,98.555850,81.314920
SOLID,12
102.000000,73.000000,98.555850,81.314920
96.999870,80.483230,96.999870,80.483230
SOLID,12
102.000000,73.000000,96.999870,80.483230
95.636040,79.363960,95.636040,79.363960
SOLID,12
102.000000,73.000000,95.636040,79.363960
94.516770,78.000130,94.516770,78.000130
SOLID,12
102.000000,73.000000,94.516770,78.000130
93.685080,76.444150,93.685080,76.444150
SOLID,12
102.000000,73.000000,93.685080,76.444150
93.172930,74.755810,93.172930,74.755810
SOLID,12
102.000000,73.000000,93.172930,74.755810
93.000000,73.000000,93.000000,73.000000
SOLID,12
102.000000,73.000000,93.000000,73.000000
93.172930,71.244190,93.172930,71.244190
SOLID,12
102.000000,73.000000,93.172930,71.244190
93.685080,69.555850,93.685080,69.555850
SOLID,12
102.000000,73.000000,93.685080,69.555850
94.516770,67.999870,94.516770,67.999870
SOLID,12
102.000000,73.000000,94.516770,67.999870
95.636040,66.636040,95.636040,66.636040
SOLID,12
102.000000,73.000000,95.636040,66.636040
96.999870,65.516770,96.999870,65.516770
SOLID,12
102.000000,73.000000,96.999870,65.516770
98.555850,64.685080,98.555850,64.685080
SOLID,12
102.000000,73.000000,98.555850,64.685080
100.244190,64.172930,100.244190,64.172930
SOLID,12
102.000000,73.000000,100.244190,64.172930
102.000000,64.000000,102.000000,64.000000
SOLID,12
102.000000,73.000000,102.000000,64.000000
103.755810,64.172930,103.755810,64.172930
SOLID,12
102.000000,73.000000,103.755810,64.172930
105.444150,64.685080,105.444150,64.685080
SOLID,12
102.000000,73.000000,105.444150,64.685080
107.000130,65.516770,107.000130,65.516770
SOLID,12
102.000000,73.000000,107.000130,65.516770
108.363960,66.636040,108.363960,66.636040
SOLID,12
102.000000,73.000000,108.363960,66.636040
109.483230,67.999870,109.483230,67.999870
SOLID,12
102.000000,73.000000,109.483230,67.999870
110.314920,69.555850,110.314920,69.555850
SOLID,12
102.000000,73.000000,110.314920,69.555850
110.827070,71.244190,110.827070,71.244190
SOLID,12
102.000000,73.000000,110.827070,71.244190
111.000000,73.000000,111.000000,73.000000
SOLID,7
0.000000,7.000000,120.000000,7.000000
0.000000,29.000000,120.000000,19.000000
SOLID,11
14.000000,18.000000,94.000000,12.000000
37.000000,34.000000,114.000000,27.000000
SOLID,3
66.000000,24.000000,86.000000,36.000000
66.000000,67.000000,86.000000,78.000000
SOLID,2
18.000000,24.000000,66.000000,24.000000
18.000000,67.000000,66.000000,67.000000
SOLID,10
18.000000,67.000000,66.000000,67.000000
39.000000,78.000000,86.000000,78.000000
SOLID,5
23.000000,31.000000,27.800000,31.000000
23.000000,36.200000,27.800000,36.200000
SOLID,5
30.000000,31.000000,34.800000,31.000000
30.000000,36.200000,34.800000,36.200000
SOLID,5
37.000000,31.000000,41.800000,31.000000
37.000000,36.200000,41.800000,36.200000
SOLID,5
44.000000,31.000000,48.800000,31.000000
44.000000,36.200000,48.800000,36.200000
SOLID,5
51.000000,31.000000,55.800000,31.000000
51.000000,36.200000,55.800000,36.200000
SOLID,5
58.000000,31.000000,62.800000,31.000000
58.000000,36.200000,62.800000,36.200000
SOLID,5
23.000000,39.000000,27.800000,39.000000
23.000000,44.200000,27.800000,44.200000
SOLID,5
30.000000,39.000000,34.800000,39.000000
30.000000,44.200000,34.800000,44.200000
SOLID,5
37.000000,39.000000,41.800000,39.000000
37.000000,44.200000,41.800000,44.200000
SOLID,5
44.000000,39.000000,48.800000,39.000000
44.000000,44.200000,48.800000,44.200000
SOLID,5
51.000000,39.000000,55.800000,39.000000
51.000000,44.200000,55.800000,44.200000
SOLID,5
58.000000,39.000000,62.800000,39.000000
58.000000,44.200000,62.800000,44.200000
SOLID,5
23.000000,47.000000,27.800000,47.000000
23.000000,52.200000,27.800000,52.200000
SOLID,5
30.000000,47.000000,34.800000,47.000000
30.000000,52.200000,34.800000,52.200000
SOLID,5
37.000000,47.000000,41.800000,47.000000
37.000000,52.200000,41.800000,52.200000
SOLID,5
44.000000,47.000000,48.800000,47.000000
44.000000,52.200000,48.800000,52.200000
SOLID,5
51.000000,47.000000,55.800000,47.000000
51.000000,52.200000,55.800000,52.200000
SOLID,5
58.000000,47.000000,62.800000,47.000000
58.000000,52.200000,62.800000,52.200000
SOLID,5
23.000000,55.000000,27.800000,55.000000
23.000000,60.200000,27.800000,60.200000
SOLID,5
30.000000,55.000000,34.800000,55.000000
30.000000,60.200000,34.800000,60.200000
SOLID,5
37.000000,55.000000,41.800000,55.000000
37.000000,60.200000,41.800000,60.200000
SOLID,5
44.000000,55.000000,48.800000,55.000000
44.000000,60.200000,48.800000,60.200000
SOLID,5
51.000000,55.000000,55.800000,55.000000
51.000000,60.200000,55.800000,60.200000
SOLID,5
58.000000,55.000000,62.800000,55.000000
58.000000,60.200000,62.800000,60.200000
SOLID,6
23.400000,34.600000,27.400000,34.600000
23.400000,35.800000,27.400000,35.800000
SOLID,6
30.400000,34.600000,34.400000,34.600000
30.400000,35.800000,34.400000,35.800000
SOLID,6
37.400000,34.600000,41.400000,34.600000
37.400000,35.800000,41.400000,35.800000
SOLID,6
44.400000,34.600000,48.400000,34.600000
44.400000,35.800000,48.400000,35.800000
SOLID,6
51.400000,34.600000,55.400000,34.600000
51.400000,35.800000,55.400000,35.800000
SOLID,6
58.400000,34.600000,62.400000,34.600000
58.400000,35.800000,62.400000,35.800000
SOLID,6
23.400000,42.600000,27.400000,42.600000
23.400000,43.800000,27.400000,43.800000
SOLID,6
30.400000,42.600000,34.400000,42.600000
30.400000,43.800000,34.400000,43.800000
SOLID,6
37.400000,42.600000,41.400000,42.600000
37.400000,43.800000,41.400000,43.800000
SOLID,6
44.400000,42.600000,48.400000,42.600000
44.400000,43.800000,48.400000,43.800000
SOLID,6
51.400000,42.600000,55.400000,42.600000
51.400000,43.800000,55.400000,43.800000
SOLID,6
58.400000,42.600000,62.400000,42.600000
58.400000,43.800000,62.400000,43.800000
SOLID,6
23.400000,50.600000,27.400000,50.600000
23.400000,51.800000,27.400000,51.800000
SOLID,6
30.400000,50.600000,34.400000,50.600000
30.400000,51.800000,34.400000,51.800000
SOLID,6
37.400000,50.600000,41.400000,50.600000
37.400000,51.800000,41.400000,51.800000
SOLID,6
44.400000,50.600000,48.400000,50.600000
44.400000,51.800000,48.400000,51.800000
SOLID,6
51.400000,50.600000,55.400000,50.600000
51.400000,51.800000,55.400000,51.800000
SOLID,6
58.400000,50.600000,62.400000,50.600000
58.400000,51.800000,62.400000,51.800000
SOLID,6
23.400000,58.600000,27.400000,58.600000
23.400000,59.800000,27.400000,59.800000
SOLID,6
30.400000,58.600000,34.400000,58.600000
30.400000,59.800000,34.400000,59.800000
SOLID,6
37.400000,58.600000,41.400000,58.600000
37.400000,59.800000,41.400000,59.800000
SOLID,6
44.400000,58.600000,48.400000,58.600000
44.400000,59.800000,48.400000,59.800000
SOLID,6
51.400000,58.600000,55.400000,58.600000
51.400000,59.800000,55.400000,59.800000
SOLID,6
58.400000,58.600000,62.400000,58.600000
58.400000,59.800000,62.400000,59.800000
SOLID,5
70.000000,33.000000,74.000000,35.200000
70.000000,37.800000,74.000000,40.000000
LINE,6
70.400000,37.800000,73.600000,39.600000
SOLID,5
77.000000,33.000000,81.000000,35.200000
77.000000,37.800000,81.000000,40.000000
LINE,6
77.400000,37.800000,80.600000,39.600000
SOLID,5
70.000000,41.000000,74.000000,43.200000
70.000000,45.800000,74.000000,48.000000
LINE,6
70.400000,45.800000,73.600000,47.600000
SOLID,5
77.000000,41.000000,81.000000,43.200000
77.000000,45.800000,81.000000,48.000000
LINE,6
77.400000,45.800000,80.600000,47.600000
SOLID,5
70.000000,49.000000,74.000000,51.200000
70.000000,53.800000,74.000000,56.000000
LINE,6
70.400000,53.800000,73.600000,55.600000
SOLID,5
77.000000,49.000000,81.000000,51.200000
77.000000,53.800000,81.000000,56.000000
LINE,6
77.400000,53.800000,80.600000,55.600000
SOLID,5
70.000000,57.000000,74.000000,59.200000
70.000000,61.800000,74.000000,64.000000
LINE,6
70.400000,61.800000,73.600000,63.600000
SOLID,5
77.000000,57.000000,81.000000,59.200000
77.000000,61.800000,81.000000,64.000000
LINE,6
77.400000,61.800000,80.600000,63.600000
SOLID,4
56.000000,17.000000,104.000000,17.000000
56.000000,39.000000,104.000000,39.000000
SOLID,3
104.000000,17.000000,113.000000,24.000000
104.000000,39.000000,113.000000,46.000000
SOLID,10
56.000000,39.000000,104.000000,39.000000
67.000000,46.000000,113.000000,46.000000
SOLID,5
60.000000,21.000000,100.000000,21.000000
60.000000,33.000000,100.000000,33.000000
SOLID,6
61.000000,29.000000,64.800000,29.000000
61.000000,31.200000,64.800000,31.200000
SOLID,6
65.800000,29.000000,69.600000,29.000000
65.800000,31.200000,69.600000,31.200000
SOLID,6
70.600000,29.000000,74.400000,29.000000
70.600000,31.200000,74.400000,31.200000
SOLID,6
75.400000,29.000000,79.200000,29.000000
75.400000,31.200000,79.200000,31.200000
SOLID,6
80.200000,29.000000,84.000000,29.000000
80.200000,31.200000,84.000000,31.200000
SOLID,6
85.000000,29.000000,88.800000,29.000000
85.000000,31.200000,88.800000,31.200000
SOLID,6
89.800000,29.000000,93.600000,29.000000
89.800000,31.200000,93.600000,31.200000
SOLID,6
94.600000,29.000000,98.400000,29.000000
94.600000,31.200000,98.400000,31.200000
LINE,11
60.000000,21.000000,60.000000,33.000000
LINE,11
65.000000,21.000000,65.000000,33.000000
LINE,11
70.000000,21.000000,70.000000,33.000000
LINE,11
75.000000,21.000000,75.000000,33.000000
LINE,11
80.000000,21.000000,80.000000,33.000000
LINE,11
85.000000,21.000000,85.000000,33.000000
LINE,11
90.000000,21.000000,90.000000,33.000000
LINE,11
95.000000,21.000000,95.000000,33.000000
LINE,11
100.000000,21.000000,100.000000,33.000000
SOLID,7
15.000000,12.000000,56.000000,12.000000
24.000000,21.000000,62.000000,21.000000
SOLID,11
24.000000,11.000000,46.000000,11.000000
24.000000,14.000000,46.000000,14.000000
SOLID,4
25.000000,12.000000,45.000000,12.000000
25.000000,16.000000,45.000000,16.000000
SOLID,11
29.400000,14.000000,30.600000,14.000000
29.400000,26.000000,30.600000,26.000000
SOLID,8
30.000000,26.000000,37.000000,26.000000
36.865500,27.365630,36.865500,27.365630
SOLID,8
30.000000,26.000000,36.865500,27.365630
36.467160,28.678780,36.467160,28.678780
SOLID,8
30.000000,26.000000,36.467160,28.678780
35.820290,29.888990,35.820290,29.888990
SOLID,8
30.000000,26.000000,35.820290,29.888990
34.949750,30.949750,34.949750,30.949750
SOLID,8
30.000000,26.000000,34.949750,30.949750
33.888990,31.820290,33.888990,31.820290
SOLID,8
30.000000,26.000000,33.888990,31.820290
32.678780,32.467160,32.678780,32.467160
SOLID,8
30.000000,26.000000,32.678780,32.467160
31.365630,32.865500,31.365630,32.865500
SOLID,8
30.000000,26.000000,31.365630,32.865500
30.000000,33.000000,30.000000,33.000000
SOLID,8
30.000000,26.000000,30.000000,33.000000
28.634370,32.865500,28.634370,32.865500
SOLID,8
30.000000,26.000000,28.634370,32.865500
27.321220,32.467160,27.321220,32.467160
SOLID,8
30.000000,26.000000,27.321220,32.467160
26.111010,31.820290,26.111010,31.820290
SOLID,8
30.000000,26.000000,26.111010,31.820290
25.050250,30.949750,25.050250,30.949750
SOLID,8
30.000000,26.000000,25.050250,30.949750
24.179710,29.888990,24.179710,29.888990
SOLID,8
30.000000,26.000000,24.179710,29.888990
23.532840,28.678780,23.532840,28.678780
SOLID,8
30.000000,26.000000,23.532840,28.678780
23.134500,27.365630,23.134500,27.365630
SOLID,8
30.000000,26.000000,23.134500,27.365630
23.000000,26.000000,23.000000,26.000000
SOLID,8
30.000000,26.000000,23.000000,26.000000
23.134500,24.634370,23.134500,24.634370
SOLID,8
30.000000,26.000000,23.134500,24.634370
23.532840,23.321220,23.532840,23.321220
SOLID,8
30.000000,26.000000,23.532840,23.321220
24.179710,22.111010,24.179710,22.111010
SOLID,8
30.000000,26.000000,24.179710,22.111010
25.050250,21.050250,25.050250,21.050250
SOLID,8
30.000000,26.000000,25.050250,21.050250
26.111010,20.179710,26.111010,20.179710
SOLID,8
30.000000,26.000000,26.111010,20.179710
27.321220,19.532840,27.321220,19.532840
SOLID,8
30.000000,26.000000,27.321220,19.532840
28.634370,19.134500,28.634370,19.134500
SOLID,8
30.000000,26.000000,28.634370,19.134500
30.000000,19.000000,30.000000,19.000000
SOLID,8
30.000000,26.000000,30.000000,19.000000
31.365630,19.134500,31.365630,19.134500
SOLID,8
30.000000,26.000000,31.365630,19.134500
32.678780,19.532840,32.678780,19.532840
SOLID,8
30.000000,26.000000,32.678780,19.532840
33.888990,20.179710,33.888990,20.179710
SOLID,8
30.000000,26.000000,33.888990,20.179710
34.949750,21.050250,34.949750,21.050250
SOLID,8
30.000000,26.000000,34.949750,21.050250
35.820290,22.111010,35.820290,22.111010
SOLID,8
30.000000,26.000000,35.820290,22.111010
36.467160,23.321220,36.467160,23.321220
SOLID,8
30.000000,26.000000,36.467160,23.321220
36.865500,24.634370,36.865500,24.634370
SOLID,8
30.000000,26.000000,36.865500,24.634370
37.000000,26.000000,37.000000,26.000000
SOLID,9
28.400000,27.800000,32.740000,27.800000
32.656610,28.646690,32.656610,28.646690
SOLID,9
28.400000,27.800000,32.656610,28.646690
32.409640,29.460850,32.409640,29.460850
SOLID,9
28.400000,27.800000,32.409640,29.460850
32.008580,30.211170,32.008580,30.211170
SOLID,9
28.400000,27.800000,32.008580,30.211170
31.468840,30.868840,31.468840,30.868840
SOLID,9
28.400000,27.800000,31.468840,30.868840
30.811170,31.408580,30.811170,31.408580
SOLID,9
28.400000,27.800000,30.811170,31.408580
30.060850,31.809640,30.060850,31.809640
SOLID,9
28.400000,27.800000,30.060850,31.809640
29.246690,32.056610,29.246690,32.056610
SOLID,9
28.400000,27.800000,29.246690,32.056610
28.400000,32.140000,28.400000,32.140000
SOLID,9
28.400000,27.800000,28.400000,32.140000
27.553310,32.056610,27.553310,32.056610
SOLID,9
28.400000,27.800000,27.553310,32.056610
26.739150,31.809640,26.739150,31.809640
SOLID,9
28.400000,27.800000,26.739150,31.809640
25.988830,31.408580,25.988830,31.408580
SOLID,9
28.400000,27.800000,25.988830,31.408580
25.331160,30.868840,25.331160,30.868840
SOLID,9
28.400000,27.800000,25.331160,30.868840
24.791420,30.211170,24.791420,30.211170
SOLID,9
28.400000,27.800000,24.791420,30.211170
24.390360,29.460850,24.390360,29.460850
SOLID,9
28.400000,27.800000,24.390360,29.460850
24.143390,28.646690,24.143390,28.646690
SOLID,9
28.400000,27.800000,24.143390,28.646690
24.060000,27.800000,24.060000,27.800000
SOLID,9
28.400000,27.800000,24.060000,27.800000
24.143390,26.953310,24.143390,26.953310
SOLID,9
28.400000,27.800000,24.143390,26.953310
24.390360,26.139150,24.390360,26.139150
SOLID,9
28.400000,27.800000,24.390360,26.139150
24.791420,25.388830,24.791420,25.388830
SOLID,9
28.400000,27.800000,24.791420,25.388830
25.331160,24.731160,25.331160,24.731160
SOLID,9
28.400000,27.800000,25.331160,24.731160
25.988830,24.191420,25.988830,24.191420
SOLID,9
28.400000,27.800000,25.988830,24.191420
26.739150,23.790360,26.739150,23.790360
SOLID,9
28.400000,27.800000,26.739150,23.790360
27.553310,23.543390,27.553310,23.543390
SOLID,9
28.400000,27.800000,27.553310,23.543390
28.400000,23.460000,28.400000,23.460000
SOLID,9
28.400000,27.800000,28.400000,23.460000
29.246690,23.543390,29.246690,23.543390
SOLID,9
28.400000,27.800000,29.246690,23.543390
30.060850,23.790360,30.060850,23.790360
SOLID,9
28.400000,27.800000,30.060850,23.790360
30.811170,24.191420,30.811170,24.191420
SOLID,9
28.400000,27.800000,30.811170,24.191420
31.468840,24.731160,31.468840,24.731160
SOLID,9
28.400000,27.800000,31.468840,24.731160
32.008580,25.388830,32.008580,25.388830
SOLID,9
28.400000,27.800000,32.008580,25.388830
32.409640,26.139150,32.409640,26.139150
SOLID,9
28.400000,27.800000,32.409640,26.139150
32.656610,26.953310,32.656610,26.953310
SOLID,9
28.400000,27.800000,32.656610,26.953310
32.740000,27.800000,32.740000,27.800000
SOLID,11
41.400000,14.000000,42.600000,14.000000
41.400000,23.000000,42.600000,23.000000
SOLID,8
42.000000,23.000000,47.500000,23.000000
47.394320,24.073000,47.394320,24.073000
SOLID,8
42.000000,23.000000,47.394320,24.073000
47.081340,25.104760,47.081340,25.104760
SOLID,8
42.000000,23.000000,47.081340,25.104760
46.573080,26.055640,46.573080,26.055640
SOLID,8
42.000000,23.000000,46.573080,26.055640
45.889090,26.889090,45.889090,26.889090
SOLID,8
42.000000,23.000000,45.889090,26.889090
45.055640,27.573080,45.055640,27.573080
SOLID,8
42.000000,23.000000,45.055640,27.573080
44.104760,28.081340,44.104760,28.081340
SOLID,8
42.000000,23.000000,44.104760,28.081340
43.073000,28.394320,43.073000,28.394320
SOLID,8
42.000000,23.000000,43.073000,28.394320
42.000000,28.500000,42.000000,28.500000
SOLID,8
42.000000,23.000000,42.000000,28.500000
40.927000,28.394320,40.927000,28.394320
SOLID,8
42.000000,23.000000,40.927000,28.394320
39.895240,28.081340,39.895240,28.081340
SOLID,8
42.000000,23.000000,39.895240,28.081340
38.944360,27.573080,38.944360,27.573080
SOLID,8
42.000000,23.000000,38.944360,27.573080
38.110910,26.889090,38.110910,26.889090
SOLID,8
42.000000,23.000000,38.110910,26.889090
37.426920,26.055640,37.426920,26.055640
SOLID,8
42.000000,23.000000,37.426920,26.055640
36.918660,25.104760,36.918660,25.104760
SOLID,8
42.000000,23.000000,36.918660,25.104760
36.605680,24.073000,36.605680,24.073000
SOLID,8
42.000000,23.000000,36.605680,24.073000
36.500000,23.000000,36.500000,23.000000
SOLID,8
42.000000,23.000000,36.500000,23.000000
36.605680,21.927000,36.605680,21.927000
SOLID,8
42.000000,23.000000,36.605680,21.927000
36.918660,20.895240,36.918660,20.895240
SOLID,8
42.000000,23.000000,36.918660,20.895240
37.426920,19.944360,37.426920,19.944360
SOLID,8
42.000000,23.000000,37.426920,19.944360
38.110910,19.110910,38.110910,19.110910
SOLID,8
42.000000,23.000000,38.110910,19.110910
38.944360,18.426920,38.944360,18.426920
SOLID,8
42.000000,23.000000,38.944360,18.426920
39.895240,17.918660,39.895240,17.918660
SOLID,8
42.000000,23.000000,39.895240,17.918660
40.927000,17.605680,40.927000,17.605680
SOLID,8
42.000000,23.000000,40.927000,17.605680
42.000000,17.500000,42.000000,17.500000
SOLID,8
42.000000,23.000000,42.000000,17.500000
43.073000,17.605680,43.073000,17.605680
SOLID,8
42.000000,23.000000,43.073000,17.605680
44.104760,17.918660,44.104760,17.918660
SOLID,8
42.000000,23.000000,44.104760,17.918660
45.055640,18.426920,45.055640,18.426920
SOLID,8
42.000000,23.000000,45.055640,18.426920
45.889090,19.110910,45.889090,19.110910
SOLID,8
42.000000,23.000000,45.889090,19.110910
46.573080,19.944360,46.573080,19.944360
SOLID,8
42.000000,23.000000,46.573080,19.944360
47.081340,20.895240,47.081340,20.895240
SOLID,8
42.000000,23.000000,47.081340,20.895240
47.394320,21.927000,47.394320,21.927000
SOLID,8
42.000000,23.000000,47.394320,21.927000
47.500000,23.000000,47.500000,23.000000
SOLID,9
40.400000,24.800000,43.810000,24.800000
43.744480,25.465260,43.744480,25.465260
SOLID,9
40.400000,24.800000,43.744480,25.465260
43.550430,26.104950,43.550430,26.104950
SOLID,9
40.400000,24.800000,43.550430,26.104950
43.235310,26.694490,43.235310,26.694490
SOLID,9
40.400000,24.800000,43.235310,26.694490
42.811230,27.211230,42.811230,27.211230
SOLID,9
40.400000,24.800000,42.811230,27.211230
42.294490,27.635310,42.294490,27.635310
SOLID,9
40.400000,24.800000,42.294490,27.635310
41.704950,27.950430,41.704950,27.950430
SOLID,9
40.400000,24.800000,41.704950,27.950430
41.065260,28.144480,41.065260,28.144480
SOLID,9
40.400000,24.800000,41.065260,28.144480
40.400000,28.210000,40.400000,28.210000
SOLID,9
40.400000,24.800000,40.400000,28.210000
39.734740,28.144480,39.734740,28.144480
SOLID,9
40.400000,24.800000,39.734740,28.144480
39.095050,27.950430,39.095050,27.950430
SOLID,9
40.400000,24.800000,39.095050,27.950430
38.505510,27.635310,38.505510,27.635310
SOLID,9
40.400000,24.800000,38.505510,27.635310
37.988770,27.211230,37.988770,27.211230
SOLID,9
40.400000,24.800000,37.988770,27.211230
37.564690,26.694490,37.564690,26.694490
SOLID,9
40.400000,24.800000,37.564690,26.694490
37.249570,26.104950,37.249570,26.104950
SOLID,9
40.400000,24.800000,37.249570,26.104950
37.055520,25.465260,37.055520,25.465260
SOLID,9
40.400000,24.800000,37.055520,25.465260
36.990000,24.800000,36.990000,24.800000
SOLID,9
40.400000,24.800000,36.990000,24.800000
37.055520,24.134740,37.055520,24.134740
SOLID,9
40.400000,24.800000,37.055520,24.134740
37.249570,23.495050,37.249570,23.495050
SOLID,9
40.400000,24.800000,37.249570,23.495050
37.564690,22.905510,37.564690,22.905510
SOLID,9
40.400000,24.800000,37.564690,22.905510
37.988770,22.388770,37.988770,22.388770
SOLID,9
40.400000,24.800000,37.988770,22.388770
38.505510,21.964690,38.505510,21.964690
SOLID,9
40.400000,24.800000,38.505510,21.964690
39.095050,21.649570,39.095050,21.649570
SOLID,9
40.400000,24.800000,39.095050,21.649570
39.734740,21.455520,39.734740,21.455520
SOLID,9
40.400000,24.800000,39.734740,21.455520
40.400000,21.390000,40.400000,21.390000
SOLID,9
40.400000,24.800000,40.400000,21.390000
41.065260,21.455520,41.065260,21.455520
SOLID,9
40.400000,24.800000,41.065260,21.455520
41.704950,21.649570,41.704950,21.649570
SOLID,9
40.400000,24.800000,41.704950,21.649570
42.294490,21.964690,42.294490,21.964690
SOLID,9
40.400000,24.800000,42.294490,21.964690
42.811230,22.388770,42.811230,22.388770
SOLID,9
40.400000,24.800000,42.811230,22.388770
43.235310,22.905510,43.235310,22.905510
SOLID,9
40.400000,24.800000,43.235310,22.905510
43.550430,23.495050,43.550430,23.495050
SOLID,9
40.400000,24.800000,43.550430,23.495050
43.744480,24.134740,43.744480,24.134740
SOLID,9
40.400000,24.800000,43.744480,24.134740
43.810000,24.800000,43.810000,24.800000
LINE,10
9.000000,5.000000,21.000000,10.000000
LINE,10
18.000000,5.000000,30.000000,10.000000
LINE,10
27.000000,5.000000,39.000000,10.000000
LINE,10
36.000000,5.000000,48.000000,10.000000
LINE,10
45.000000,5.000000,57.000000,10.000000
LINE,10
54.000000,5.000000,66.000000,10.000000
LINE,10
63.000000,5.000000,75.000000,10.000000
LINE,10
72.000000,5.000000,84.000000,10.000000
LINE,10
81.000000,5.000000,93.000000,10.000000
LINE,10
90.000000,5.000000,102.000000,10.000000
LINE,10
99.000000,5.000000,111.000000,10.000000
LINE,10
108.000000,5.000000,120.000000,10.000000
LINE,11
8.000000,82.000000,34.000000,82.000000
LINE,11
8.000000,79.000000,22.000000,79.000000
LINE,11
8.000000,76.000000,15.000000,76.000000
