<svg xmlns="http://www.w3.org/2000/svg" width="800" height="600" viewBox="0 0 800 600"><rect width="800" height="600" fill="black"/><polygon points="0,600 800,600 800,0 0,0 0,600" fill="#ffffff"/><polyline points="0,600 800,600 800,0 0,0 0,600" fill="none" stroke="#ffffff" stroke-width="1"/><polygon points="33.333333333333314,566.6666666666667 766.6666666666667,566.6666666666667 766.6666666666667,33.333333333333314 33.333333333333314,33.333333333333314 33.333333333333314,566.6666666666667" fill="#656565"/><polyline points="33.333333333333314,566.6666666666667 766.6666666666667,566.6666666666667 766.6666666666667,33.333333333333314 33.333333333333314,33.333333333333314 33.333333333333314,566.6666666666667" fill="none" stroke="#656565" stroke-width="1"/><polygon points="40,560 760,560 760,40 40,40 40,560" fill="#ffffff"/><polyline points="40,560 760,560 760,40 40,40 40,560" fill="none" stroke="#ffffff" stroke-width="1"/><polygon points="60,413.33333333333337 380,413.33333333333337 380,166.66666666666666 60,166.66666666666666 60,413.33333333333337" fill="#527ba5"/><polyline points="60,413.33333333333337 380,413.33333333333337 380,166.66666666666666 60,166.66666666666666 60,413.33333333333337" fill="none" stroke="#527ba5" stroke-width="1"/><polygon points="420,413.33333333333337 740,413.33333333333337 740,166.66666666666666 420,166.66666666666666 420,413.33333333333337" fill="#52a57b"/><polyline points="420,413.33333333333337 740,413.33333333333337 740,166.66666666666666 420,166.66666666666666 420,413.33333333333337" fill="none" stroke="#52a57b" stroke-width="1"/><polyline points="76.66666666666663,106.66666666666666 73.33333333333331,103.33333333333331" fill="none" stroke="#656565" stroke-width="1"/><polyline points="73.33333333333331,103.33333333333331 73.33333333333331,90" fill="none" stroke="#656565" stroke-width="1"/><polyline points="73.33333333333331,90 76.66666666666663,86.66666666666666" fill="none" stroke="#656565" stroke-width="1"/><polyline points="76.66666666666663,86.66666666666666 83.33333333333331,86.66666666666666" fill="none" stroke="#656565" stroke-width="1"/><polyline points="83.33333333333331,86.66666666666666 86.66666666666663,90" fill="none" stroke="#656565" stroke-width="1"/><polyline points="86.66666666666663,90 86.66666666666663,103.33333333333331" fill="none" stroke="#656565" stroke-width="1"/><polyline points="86.66666666666663,103.33333333333331 83.33333333333331,106.66666666666666" fill="none" stroke="#656565" stroke-width="1"/><polyline points="83.33333333333331,106.66666666666666 76.66666666666663,106.66666666666666" fill="none" stroke="#656565" stroke-width="1"/><polyline points="93.33333333333331,106.66666666666666 93.33333333333331,86.66666666666666" fill="none" stroke="#656565" stroke-width="1"/><polyline points="93.33333333333331,86.66666666666666 106.66666666666663,106.66666666666666" fill="none" stroke="#656565" stroke-width="1"/><polyline points="106.66666666666663,106.66666666666666 106.66666666666663,86.66666666666666" fill="none" stroke="#656565" stroke-width="1"/><polyline points="126.66666666666663,86.66666666666666 113.33333333333331,86.66666666666666" fill="none" stroke="#656565" stroke-width="1"/><polyline points="113.33333333333331,86.66666666666666 113.33333333333331,106.66666666666666" fill="none" stroke="#656565" stroke-width="1"/><polyline points="113.33333333333331,106.66666666666666 126.66666666666663,106.66666666666666" fill="none" stroke="#656565" stroke-width="1"/><polyline points="113.33333333333331,96.66666666666666 123.33333333333331,96.66666666666666" fill="none" stroke="#656565" stroke-width="1"/><polyline points="166.66666666666666,90 163.33333333333331,86.66666666666666" fill="none" stroke="#656565" stroke-width="1"/><polyline points="163.33333333333331,86.66666666666666 156.66666666666666,86.66666666666666" fill="none" stroke="#656565" stroke-width="1"/><polyline points="156.66666666666666,86.66666666666666 153.33333333333331,90" fill="none" stroke="#656565" stroke-width="1"/><polyline points="153.33333333333331,90 153.33333333333331,93.33333333333331" fill="none" stroke="#656565" stroke-width="1"/><polyline points="153.33333333333331,93.33333333333331 156.66666666666666,96.66666666666666" fill="none" stroke="#656565" stroke-width="1"/><polyline points="156.66666666666666,96.66666666666666 163.33333333333331,96.66666666666666" fill="none" stroke="#656565" stroke-width="1"/><polyline points="163.33333333333331,96.66666666666666 166.66666666666666,100" fill="none" stroke="#656565" stroke-width="1"/><polyline points="166.66666666666666,100 166.66666666666666,103.33333333333331" fill="none" stroke="#656565" stroke-width="1"/><polyline points="166.66666666666666,103.33333333333331 163.33333333333331,106.66666666666666" fill="none" stroke="#656565" stroke-width="1"/><polyline points="163.33333333333331,106.66666666666666 156.66666666666666,106.66666666666666" fill="none" stroke="#656565" stroke-width="1"/><polyline points="156.66666666666666,106.66666666666666 153.33333333333331,103.33333333333331" fill="none" stroke="#656565" stroke-width="1"/><polyline points="173.33333333333331,106.66666666666666 173.33333333333331,86.66666666666666" fill="none" stroke="#656565" stroke-width="1"/><polyline points="173.33333333333331,86.66666666666666 180,96.66666666666666" fill="none" stroke="#656565" stroke-width="1"/><polyline points="180,96.66666666666666 186.66666666666666,86.66666666666666" fill="none" stroke="#656565" stroke-width="1"/><polyline points="186.66666666666666,86.66666666666666 186.66666666666666,106.66666666666666" fill="none" stroke="#656565" stroke-width="1"/><polyline points="193.33333333333331,106.66666666666666 200,86.66666666666666" fill="none" stroke="#656565" stroke-width="1"/><polyline points="200,86.66666666666666 206.66666666666666,106.66666666666666" fill="none" stroke="#656565" stroke-width="1"/><polyline points="195,101.66666666666666 205,101.66666666666666" fill="none" stroke="#656565" stroke-width="1"/><polyline points="213.33333333333331,86.66666666666666 213.33333333333331,106.66666666666666" fill="none" stroke="#656565" stroke-width="1"/><polyline points="213.33333333333331,106.66666666666666 226.66666666666666,106.66666666666666" fill="none" stroke="#656565" stroke-width="1"/><polyline points="233.33333333333331,86.66666666666666 233.33333333333331,106.66666666666666" fill="none" stroke="#656565" stroke-width="1"/><polyline points="233.33333333333331,106.66666666666666 246.66666666666666,106.66666666666666" fill="none" stroke="#656565" stroke-width="1"/><polyline points="286.66666666666663,86.66666666666666 273.3333333333333,86.66666666666666" fill="none" stroke="#656565" stroke-width="1"/><polyline points="273.3333333333333,86.66666666666666 273.3333333333333,106.66666666666666" fill="none" stroke="#656565" stroke-width="1"/><polyline points="273.3333333333333,106.66666666666666 286.66666666666663,106.66666666666666" fill="none" stroke="#656565" stroke-width="1"/><polyline points="273.3333333333333,96.66666666666666 283.3333333333333,96.66666666666666" fill="none" stroke="#656565" stroke-width="1"/><polyline points="293.3333333333333,106.66666666666666 293.3333333333333,86.66666666666666" fill="none" stroke="#656565" stroke-width="1"/><polyline points="293.3333333333333,86.66666666666666 301.66666666666663,86.66666666666666" fill="none" stroke="#656565" stroke-width="1"/><polyline points="301.66666666666663,86.66666666666666 306.66666666666663,91.66666666666666" fill="none" stroke="#656565" stroke-width="1"/><polyline points="306.66666666666663,91.66666666666666 306.66666666666663,101.66666666666666" fill="none" stroke="#656565" stroke-width="1"/><polyline points="306.66666666666663,101.66666666666666 301.66666666666663,106.66666666666666" fill="none" stroke="#656565" stroke-width="1"/><polyline points="301.66666666666663,106.66666666666666 293.3333333333333,106.66666666666666" fill="none" stroke="#656565" stroke-width="1"/><polyline points="316.66666666666663,86.66666666666666 323.3333333333333,86.66666666666666" fill="none" stroke="#656565" stroke-width="1"/><polyline points="320,86.66666666666666 320,106.66666666666666" fill="none" stroke="#656565" stroke-width="1"/><polyline points="316.66666666666663,106.66666666666666 323.3333333333333,106.66666666666666" fill="none" stroke="#656565" stroke-width="1"/><polyline points="333.3333333333333,86.66666666666666 346.6666666666667,86.66666666666666" fill="none" stroke="#656565" stroke-width="1"/><polyline points="340,86.66666666666666 340,106.66666666666666" fill="none" stroke="#656565" stroke-width="1"/><polyline points="360,105 360,106.66666666666666" fill="none" stroke="#656565" stroke-width="1"/><polyline points="380,105 380,106.66666666666666" fill="none" stroke="#656565" stroke-width="1"/><polyline points="400,105 400,106.66666666666666" fill="none" stroke="#656565" stroke-width="1"/><polyline points="460,86.66666666666666 460,103.33333333333331" fill="none" stroke="#656565" stroke-width="1"/><polyline points="460,103.33333333333331 463.3333333333333,106.66666666666666" fill="none" stroke="#656565" stroke-width="1"/><polyline points="463.3333333333333,106.66666666666666 470,106.66666666666666" fill="none" stroke="#656565" stroke-width="1"/><polyline points="470,106.66666666666666 473.33333333333337,103.33333333333331" fill="none" stroke="#656565" stroke-width="1"/><polyline points="473.33333333333337,103.33333333333331 473.33333333333337,86.66666666666666" fill="none" stroke="#656565" stroke-width="1"/><polyline points="480,106.66666666666666 480,86.66666666666666" fill="none" stroke="#656565" stroke-width="1"/><polyline points="480,86.66666666666666 493.33333333333337,106.66666666666666" fill="none" stroke="#656565" stroke-width="1"/><polyline points="493.33333333333337,106.66666666666666 493.33333333333337,86.66666666666666" fill="none" stroke="#656565" stroke-width="1"/><polyline points="500,106.66666666666666 500,86.66666666666666" fill="none" stroke="#656565" stroke-width="1"/><polyline points="500,86.66666666666666 508.33333333333337,86.66666666666666" fill="none" stroke="#656565" stroke-width="1"/><polyline points="508.33333333333337,86.66666666666666 513.3333333333334,91.66666666666666" fill="none" stroke="#656565" stroke-width="1"/><polyline points="513.3333333333334,91.66666666666666 513.3333333333334,101.66666666666666" fill="none" stroke="#656565" stroke-width="1"/><polyline points="513.3333333333334,101.66666666666666 508.33333333333337,106.66666666666666" fill="none" stroke="#656565" stroke-width="1"/><polyline points="508.33333333333337,106.66666666666666 500,106.66666666666666" fill="none" stroke="#656565" stroke-width="1"/><polyline points="523.3333333333334,106.66666666666666 520,103.33333333333331" fill="none" stroke="#656565" stroke-width="1"/><polyline points="520,103.33333333333331 520,90" fill="none" stroke="#656565" stroke-width="1"/><polyline points="520,90 523.3333333333334,86.66666666666666" fill="none" stroke="#656565" stroke-width="1"/><polyline points="523.3333333333334,86.66666666666666 530,86.66666666666666" fill="none" stroke="#656565" stroke-width="1"/><polyline points="530,86.66666666666666 533.3333333333334,90" fill="none" stroke="#656565" stroke-width="1"/><polyline points="533.3333333333334,90 533.3333333333334,103.33333333333331" fill="none" stroke="#656565" stroke-width="1"/><polyline points="533.3333333333334,103.33333333333331 530,106.66666666666666" fill="none" stroke="#656565" stroke-width="1"/><polyline points="530,106.66666666666666 523.3333333333334,106.66666666666666" fill="none" stroke="#656565" stroke-width="1"/><polyline points="166.66666666666666,493.33333333333337 166.66666666666666,515.5555555555555" fill="none" stroke="#656565" stroke-width="1"/><polyline points="166.66666666666666,515.5555555555555 171.11111111111114,520" fill="none" stroke="#656565" stroke-width="1"/><polyline points="171.11111111111114,520 180,520" fill="none" stroke="#656565" stroke-width="1"/><polyline points="180,520 184.44444444444446,515.5555555555555" fill="none" stroke="#656565" stroke-width="1"/><polyline points="184.44444444444446,515.5555555555555 184.44444444444446,493.33333333333337" fill="none" stroke="#656565" stroke-width="1"/><polyline points="193.33333333333331,520 193.33333333333331,493.33333333333337" fill="none" stroke="#656565" stroke-width="1"/><polyline points="193.33333333333331,493.33333333333337 211.1111111111111,520" fill="none" stroke="#656565" stroke-width="1"/><polyline points="211.1111111111111,520 211.1111111111111,493.33333333333337" fill="none" stroke="#656565" stroke-width="1"/><polyline points="220,520 220,493.33333333333337" fill="none" stroke="#656565" stroke-width="1"/><polyline points="220,493.33333333333337 231.1111111111111,493.33333333333337" fill="none" stroke="#656565" stroke-width="1"/><polyline points="231.1111111111111,493.33333333333337 237.77777777777774,500" fill="none" stroke="#656565" stroke-width="1"/><polyline points="237.77777777777774,500 237.77777777777774,513.3333333333334" fill="none" stroke="#656565" stroke-width="1"/><polyline points="237.77777777777774,513.3333333333334 231.1111111111111,520" fill="none" stroke="#656565" stroke-width="1"/><polyline points="231.1111111111111,520 220,520" fill="none" stroke="#656565" stroke-width="1"/><polyline points="251.1111111111111,520 246.66666666666666,515.5555555555555" fill="none" stroke="#656565" stroke-width="1"/><polyline points="246.66666666666666,515.5555555555555 246.66666666666666,497.7777777777778" fill="none" stroke="#656565" stroke-width="1"/><polyline points="246.66666666666666,497.7777777777778 251.1111111111111,493.33333333333337" fill="none" stroke="#656565" stroke-width="1"/><polyline points="251.1111111111111,493.33333333333337 260,493.33333333333337" fill="none" stroke="#656565" stroke-width="1"/><polyline points="260,493.33333333333337 264.44444444444446,497.7777777777778" fill="none" stroke="#656565" stroke-width="1"/><polyline points="264.44444444444446,497.7777777777778 264.44444444444446,515.5555555555555" fill="none" stroke="#656565" stroke-width="1"/><polyline points="264.44444444444446,515.5555555555555 260,520" fill="none" stroke="#656565" stroke-width="1"/><polyline points="260,520 251.1111111111111,520" fill="none" stroke="#656565" stroke-width="1"/><polyline points="317.77777777777777,493.33333333333337 300,493.33333333333337" fill="none" stroke="#656565" stroke-width="1"/><polyline points="300,493.33333333333337 300,520" fill="none" stroke="#656565" stroke-width="1"/><polyline points="300,506.6666666666667 313.3333333333333,506.6666666666667" fill="none" stroke="#656565" stroke-width="1"/><polyline points="331.1111111111111,493.33333333333337 340,493.33333333333337" fill="none" stroke="#656565" stroke-width="1"/><polyline points="335.55555555555554,493.33333333333337 335.55555555555554,520" fill="none" stroke="#656565" stroke-width="1"/><polyline points="331.1111111111111,520 340,520" fill="none" stroke="#656565" stroke-width="1"/><polyline points="353.3333333333333,520 371.1111111111111,493.33333333333337" fill="none" stroke="#656565" stroke-width="1"/><polyline points="353.3333333333333,493.33333333333337 371.1111111111111,520" fill="none" stroke="#656565" stroke-width="1"/><polyline points="397.77777777777777,493.33333333333337 380,493.33333333333337" fill="none" stroke="#656565" stroke-width="1"/><polyline points="380,493.33333333333337 380,520" fill="none" stroke="#656565" stroke-width="1"/><polyline points="380,520 397.77777777777777,520" fill="none" stroke="#656565" stroke-width="1"/><polyline points="380,506.6666666666667 393.3333333333333,506.6666666666667" fill="none" stroke="#656565" stroke-width="1"/><polyline points="424.44444444444446,497.7777777777778 420,493.33333333333337" fill="none" stroke="#656565" stroke-width="1"/><polyline points="420,493.33333333333337 411.1111111111111,493.33333333333337" fill="none" stroke="#656565" stroke-width="1"/><polyline points="411.1111111111111,493.33333333333337 406.6666666666667,497.7777777777778" fill="none" stroke="#656565" stroke-width="1"/><polyline points="406.6666666666667,497.7777777777778 406.6666666666667,502.2222222222223" fill="none" stroke="#656565" stroke-width="1"/><polyline points="406.6666666666667,502.2222222222223 411.1111111111111,506.6666666666667" fill="none" stroke="#656565" stroke-width="1"/><polyline points="411.1111111111111,506.6666666666667 420,506.6666666666667" fill="none" stroke="#656565" stroke-width="1"/><polyline points="420,506.6666666666667 424.44444444444446,511.1111111111111" fill="none" stroke="#656565" stroke-width="1"/><polyline points="424.44444444444446,511.1111111111111 424.44444444444446,515.5555555555555" fill="none" stroke="#656565" stroke-width="1"/><polyline points="424.44444444444446,515.5555555555555 420,520" fill="none" stroke="#656565" stroke-width="1"/><polyline points="420,520 411.1111111111111,520" fill="none" stroke="#656565" stroke-width="1"/><polyline points="411.1111111111111,520 406.6666666666667,515.5555555555555" fill="none" stroke="#656565" stroke-width="1"/><polyline points="477.7777777777777,493.33333333333337 460,493.33333333333337" fill="none" stroke="#656565" stroke-width="1"/><polyline points="460,493.33333333333337 460,520" fill="none" stroke="#656565" stroke-width="1"/><polyline points="460,520 477.7777777777777,520" fill="none" stroke="#656565" stroke-width="1"/><polyline points="460,506.6666666666667 473.33333333333337,506.6666666666667" fill="none" stroke="#656565" stroke-width="1"/><polyline points="486.6666666666667,493.33333333333337 495.55555555555554,520" fill="none" stroke="#656565" stroke-width="1"/><polyline points="495.55555555555554,520 504.4444444444444,493.33333333333337" fill="none" stroke="#656565" stroke-width="1"/><polyline points="531.1111111111111,493.33333333333337 513.3333333333334,493.33333333333337" fill="none" stroke="#656565" stroke-width="1"/><polyline points="513.3333333333334,493.33333333333337 513.3333333333334,520" fill="none" stroke="#656565" stroke-width="1"/><polyline points="513.3333333333334,520 531.1111111111111,520" fill="none" stroke="#656565" stroke-width="1"/><polyline points="513.3333333333334,506.6666666666667 526.6666666666666,506.6666666666667" fill="none" stroke="#656565" stroke-width="1"/><polyline points="540,520 540,493.33333333333337" fill="none" stroke="#656565" stroke-width="1"/><polyline points="540,493.33333333333337 553.3333333333334,493.33333333333337" fill="none" stroke="#656565" stroke-width="1"/><polyline points="553.3333333333334,493.33333333333337 557.7777777777777,497.7777777777778" fill="none" stroke="#656565" stroke-width="1"/><polyline points="557.7777777777777,497.7777777777778 557.7777777777777,502.2222222222223" fill="none" stroke="#656565" stroke-width="1"/><polyline points="557.7777777777777,502.2222222222223 553.3333333333334,506.6666666666667" fill="none" stroke="#656565" stroke-width="1"/><polyline points="553.3333333333334,506.6666666666667 540,506.6666666666667" fill="none" stroke="#656565" stroke-width="1"/><polyline points="548.8888888888889,506.6666666666667 557.7777777777777,520" fill="none" stroke="#656565" stroke-width="1"/><polyline points="566.6666666666667,493.33333333333337 575.5555555555555,506.6666666666667" fill="none" stroke="#656565" stroke-width="1"/><polyline points="575.5555555555555,506.6666666666667 584.4444444444443,493.33333333333337" fill="none" stroke="#656565" stroke-width="1"/><polyline points="575.5555555555555,506.6666666666667 575.5555555555555,520" fill="none" stroke="#656565" stroke-width="1"/><polyline points="593.3333333333334,493.33333333333337 611.1111111111111,493.33333333333337" fill="none" stroke="#656565" stroke-width="1"/><polyline points="602.2222222222222,493.33333333333337 602.2222222222222,520" fill="none" stroke="#656565" stroke-width="1"/><polyline points="620,520 620,493.33333333333337" fill="none" stroke="#656565" stroke-width="1"/><polyline points="637.7777777777777,520 637.7777777777777,493.33333333333337" fill="none" stroke="#656565" stroke-width="1"/><polyline points="620,506.6666666666667 637.7777777777777,506.6666666666667" fill="none" stroke="#656565" stroke-width="1"/><polyline points="651.1111111111111,493.33333333333337 660,493.33333333333337" fill="none" stroke="#656565" stroke-width="1"/><polyline points="655.5555555555555,493.33333333333337 655.5555555555555,520" fill="none" stroke="#656565" stroke-width="1"/><polyline points="651.1111111111111,520 660,520" fill="none" stroke="#656565" stroke-width="1"/><polyline points="673.3333333333334,520 673.3333333333334,493.33333333333337" fill="none" stroke="#656565" stroke-width="1"/><polyline points="673.3333333333334,493.33333333333337 691.1111111111111,520" fill="none" stroke="#656565" stroke-width="1"/><polyline points="691.1111111111111,520 691.1111111111111,493.33333333333337" fill="none" stroke="#656565" stroke-width="1"/><polyline points="717.7777777777777,497.7777777777778 713.3333333333334,493.33333333333337" fill="none" stroke="#656565" stroke-width="1"/><polyline points="713.3333333333334,493.33333333333337 704.4444444444443,493.33333333333337" fill="none" stroke="#656565" stroke-width="1"/><polyline points="704.4444444444443,493.33333333333337 700,497.7777777777778" fill="none" stroke="#656565" stroke-width="1"/><polyline points="700,497.7777777777778 700,515.5555555555555" fill="none" stroke="#656565" stroke-width="1"/><polyline points="700,515.5555555555555 704.4444444444443,520" fill="none" stroke="#656565" stroke-width="1"/><polyline points="704.4444444444443,520 713.3333333333334,520" fill="none" stroke="#656565" stroke-width="1"/><polyline points="713.3333333333334,520 717.7777777777777,515.5555555555555" fill="none" stroke="#656565" stroke-width="1"/><polyline points="717.7777777777777,515.5555555555555 717.7777777777777,508.8888888888889" fill="none" stroke="#656565" stroke-width="1"/><polyline points="717.7777777777777,508.8888888888889 708.8888888888889,508.8888888888889" fill="none" stroke="#656565" stroke-width="1"/><polyline points="100,366.6666666666667 300,366.6666666666667" fill="none" stroke="#656565" stroke-width="1"/><polyline points="100,366.6666666666667 100,253.33333333333331" fill="none" stroke="#656565" stroke-width="1"/><polyline points="300,366.6666666666667 300,253.33333333333331" fill="none" stroke="#656565" stroke-width="1"/><polyline points="100,253.33333333333331 200,193.33333333333331" fill="none" stroke="#656565" stroke-width="1"/><polyline points="200,193.33333333333331 300,253.33333333333331" fill="none" stroke="#656565" stroke-width="1"/><polygon points="166.66666666666666,366.6666666666667 220,366.6666666666667 220,300 166.66666666666666,300 166.66666666666666,366.6666666666667" fill="#ffffff"/><polyline points="166.66666666666666,366.6666666666667 220,366.6666666666667 220,300 166.66666666666666,300 166.66666666666666,366.6666666666667" fill="none" stroke="#ffffff" stroke-width="1"/><polygon points="120,300 153.33333333333331,300 153.33333333333331,266.6666666666667 120,266.6666666666667 120,300" fill="#ffffff"/><polyline points="120,300 153.33333333333331,300 153.33333333333331,266.6666666666667 120,266.6666666666667 120,300" fill="none" stroke="#ffffff" stroke-width="1"/><polygon points="240,300 273.3333333333333,300 273.3333333333333,266.6666666666667 240,266.6666666666667 240,300" fill="#ffffff"/><polyline points="240,300 273.3333333333333,300 273.3333333333333,266.6666666666667 240,266.6666666666667 240,300" fill="none" stroke="#ffffff" stroke-width="1"/><polyline points="460,366.6666666666667 660,366.6666666666667" fill="none" stroke="#656565" stroke-width="1"/><polyline points="460,366.6666666666667 460,253.33333333333331" fill="none" stroke="#656565" stroke-width="1"/><polyline points="660,366.6666666666667 660,253.33333333333331" fill="none" stroke="#656565" stroke-width="1"/><polyline points="460,253.33333333333331 560,193.33333333333331" fill="none" stroke="#656565" stroke-width="1"/><polyline points="560,193.33333333333331 660,253.33333333333331" fill="none" stroke="#656565" stroke-width="1"/><polygon points="526.6666666666666,366.6666666666667 580,366.6666666666667 580,300 526.6666666666666,300 526.6666666666666,366.6666666666667" fill="#ffffff"/><polyline points="526.6666666666666,366.6666666666667 580,366.6666666666667 580,300 526.6666666666666,300 526.6666666666666,366.6666666666667" fill="none" stroke="#ffffff" stroke-width="1"/><polygon points="480,300 513.3333333333334,300 513.3333333333334,266.6666666666667 480,266.6666666666667 480,300" fill="#ffffff"/><polyline points="480,300 513.3333333333334,300 513.3333333333334,266.6666666666667 480,266.6666666666667 480,300" fill="none" stroke="#ffffff" stroke-width="1"/><polygon points="600,300 633.3333333333334,300 633.3333333333334,266.6666666666667 600,266.6666666666667 600,300" fill="#ffffff"/><polyline points="600,300 633.3333333333334,300 633.3333333333334,266.6666666666667 600,266.6666666666667 600,300" fill="none" stroke="#ffffff" stroke-width="1"/><polygon points="253.33333333333331,366.6666666666667 326.66666666666663,406.6666666666667 326.66666666666663,246.66666666666666 253.33333333333331,226.66666666666666 253.33333333333331,366.6666666666667" fill="#a55252"/><polyline points="253.33333333333331,366.6666666666667 326.66666666666663,406.6666666666667 326.66666666666663,246.66666666666666 253.33333333333331,226.66666666666666 253.33333333333331,366.6666666666667" fill="none" stroke="#a55252" stroke-width="1"/><polyline points="100,253.33333333333331 173.33333333333331,193.33333333333331" fill="none" stroke="#a55252" stroke-width="1"/><polyline points="173.33333333333331,193.33333333333331 273.3333333333333,306.6666666666667" fill="none" stroke="#a55252" stroke-width="1"/><polyline points="273.3333333333333,306.6666666666667 333.3333333333333,213.33333333333331" fill="none" stroke="#a55252" stroke-width="1"/><polyline points="113.33333333333331,443.33333333333337 116.11111111111114,460" fill="none" stroke="#656565" stroke-width="1"/><polyline points="116.11111111111114,460 118.88888888888886,448.8888888888889" fill="none" stroke="#656565" stroke-width="1"/><polyline points="118.88888888888886,448.8888888888889 121.66666666666663,460" fill="none" stroke="#656565" stroke-width="1"/><polyline points="121.66666666666663,460 124.44444444444446,443.33333333333337" fill="none" stroke="#656565" stroke-width="1"/><polyline points="130,460 130,443.33333333333337" fill="none" stroke="#656565" stroke-width="1"/><polyline points="141.11111111111114,460 141.11111111111114,443.33333333333337" fill="none" stroke="#656565" stroke-width="1"/><polyline points="130,451.6666666666667 141.11111111111114,451.6666666666667" fill="none" stroke="#656565" stroke-width="1"/><polyline points="146.66666666666666,443.33333333333337 152.22222222222223,451.6666666666667" fill="none" stroke="#656565" stroke-width="1"/><polyline points="152.22222222222223,451.6666666666667 157.7777777777778,443.33333333333337" fill="none" stroke="#656565" stroke-width="1"/><polyline points="152.22222222222223,451.6666666666667 152.22222222222223,460" fill="none" stroke="#656565" stroke-width="1"/><polyline points="182.7777777777778,443.33333333333337 188.33333333333331,443.33333333333337" fill="none" stroke="#656565" stroke-width="1"/><polyline points="185.55555555555557,443.33333333333337 185.55555555555557,460" fill="none" stroke="#656565" stroke-width="1"/><polyline points="182.7777777777778,460 188.33333333333331,460" fill="none" stroke="#656565" stroke-width="1"/><polyline points="207.77777777777777,446.1111111111111 205,443.33333333333337" fill="none" stroke="#656565" stroke-width="1"/><polyline points="205,443.33333333333337 199.44444444444446,443.33333333333337" fill="none" stroke="#656565" stroke-width="1"/><polyline points="199.44444444444446,443.33333333333337 196.66666666666666,446.1111111111111" fill="none" stroke="#656565" stroke-width="1"/><polyline points="196.66666666666666,446.1111111111111 196.66666666666666,448.8888888888889" fill="none" stroke="#656565" stroke-width="1"/><polyline points="196.66666666666666,448.8888888888889 199.44444444444446,451.6666666666667" fill="none" stroke="#656565" stroke-width="1"/><polyline points="199.44444444444446,451.6666666666667 205,451.6666666666667" fill="none" stroke="#656565" stroke-width="1"/><polyline points="205,451.6666666666667 207.77777777777777,454.44444444444446" fill="none" stroke="#656565" stroke-width="1"/><polyline points="207.77777777777777,454.44444444444446 207.77777777777777,457.22222222222223" fill="none" stroke="#656565" stroke-width="1"/><polyline points="207.77777777777777,457.22222222222223 205,460" fill="none" stroke="#656565" stroke-width="1"/><polyline points="205,460 199.44444444444446,460" fill="none" stroke="#656565" stroke-width="1"/><polyline points="199.44444444444446,460 196.66666666666666,457.22222222222223" fill="none" stroke="#656565" stroke-width="1"/><polyline points="232.7777777777778,443.33333333333337 238.33333333333331,443.33333333333337" fill="none" stroke="#656565" stroke-width="1"/><polyline points="235.55555555555557,443.33333333333337 235.55555555555557,460" fill="none" stroke="#656565" stroke-width="1"/><polyline points="232.7777777777778,460 238.33333333333331,460" fill="none" stroke="#656565" stroke-width="1"/><polyline points="246.66666666666666,443.33333333333337 257.7777777777778,443.33333333333337" fill="none" stroke="#656565" stroke-width="1"/><polyline points="252.22222222222223,443.33333333333337 252.22222222222223,460" fill="none" stroke="#656565" stroke-width="1"/><polyline points="280,443.33333333333337 280,460" fill="none" stroke="#656565" stroke-width="1"/><polyline points="280,460 291.11111111111114,460" fill="none" stroke="#656565" stroke-width="1"/><polyline points="299.44444444444446,443.33333333333337 305,443.33333333333337" fill="none" stroke="#656565" stroke-width="1"/><polyline points="302.22222222222223,443.33333333333337 302.22222222222223,460" fill="none" stroke="#656565" stroke-width="1"/><polyline points="299.44444444444446,460 305,460" fill="none" stroke="#656565" stroke-width="1"/><polyline points="313.3333333333333,460 313.3333333333333,443.33333333333337" fill="none" stroke="#656565" stroke-width="1"/><polyline points="324.44444444444446,443.33333333333337 313.3333333333333,454.44444444444446" fill="none" stroke="#656565" stroke-width="1"/><polyline points="317.5,450.2777777777778 324.44444444444446,460" fill="none" stroke="#656565" stroke-width="1"/><polyline points="341.11111111111114,443.33333333333337 330,443.33333333333337" fill="none" stroke="#656565" stroke-width="1"/><polyline points="330,443.33333333333337 330,460" fill="none" stroke="#656565" stroke-width="1"/><polyline points="330,460 341.11111111111114,460" fill="none" stroke="#656565" stroke-width="1"/><polyline points="330,451.6666666666667 338.3333333333333,451.6666666666667" fill="none" stroke="#656565" stroke-width="1"/><polyline points="363.3333333333333,443.33333333333337 374.44444444444446,443.33333333333337" fill="none" stroke="#656565" stroke-width="1"/><polyline points="368.8888888888889,443.33333333333337 368.8888888888889,460" fill="none" stroke="#656565" stroke-width="1"/><polyline points="380,460 380,443.33333333333337" fill="none" stroke="#656565" stroke-width="1"/><polyline points="391.11111111111114,460 391.11111111111114,443.33333333333337" fill="none" stroke="#656565" stroke-width="1"/><polyline points="380,451.6666666666667 391.11111111111114,451.6666666666667" fill="none" stroke="#656565" stroke-width="1"/><polyline points="399.44444444444446,443.33333333333337 405,443.33333333333337" fill="none" stroke="#656565" stroke-width="1"/><polyline points="402.22222222222223,443.33333333333337 402.22222222222223,460" fill="none" stroke="#656565" stroke-width="1"/><polyline points="399.44444444444446,460 405,460" fill="none" stroke="#656565" stroke-width="1"/><polyline points="424.44444444444446,446.1111111111111 421.6666666666667,443.33333333333337" fill="none" stroke="#656565" stroke-width="1"/><polyline points="421.6666666666667,443.33333333333337 416.11111111111114,443.33333333333337" fill="none" stroke="#656565" stroke-width="1"/><polyline points="416.11111111111114,443.33333333333337 413.3333333333333,446.1111111111111" fill="none" stroke="#656565" stroke-width="1"/><polyline points="413.3333333333333,446.1111111111111 413.3333333333333,448.8888888888889" fill="none" stroke="#656565" stroke-width="1"/><polyline points="413.3333333333333,448.8888888888889 416.11111111111114,451.6666666666667" fill="none" stroke="#656565" stroke-width="1"/><polyline points="416.11111111111114,451.6666666666667 421.6666666666667,451.6666666666667" fill="none" stroke="#656565" stroke-width="1"/><polyline points="421.6666666666667,451.6666666666667 424.44444444444446,454.44444444444446" fill="none" stroke="#656565" stroke-width="1"/><polyline points="424.44444444444446,454.44444444444446 424.44444444444446,457.22222222222223" fill="none" stroke="#656565" stroke-width="1"/><polyline points="424.44444444444446,457.22222222222223 421.6666666666667,460" fill="none" stroke="#656565" stroke-width="1"/><polyline points="421.6666666666667,460 416.11111111111114,460" fill="none" stroke="#656565" stroke-width="1"/><polyline points="416.11111111111114,460 413.3333333333333,457.22222222222223" fill="none" stroke="#656565" stroke-width="1"/><polyline points="430,446.1111111111111 432.7777777777778,443.33333333333337" fill="none" stroke="#656565" stroke-width="1"/><polyline points="432.7777777777778,443.33333333333337 438.3333333333333,443.33333333333337" fill="none" stroke="#656565" stroke-width="1"/><polyline points="438.3333333333333,443.33333333333337 441.11111111111114,446.1111111111111" fill="none" stroke="#656565" stroke-width="1"/><polyline points="441.11111111111114,446.1111111111111 441.11111111111114,448.8888888888889" fill="none" stroke="#656565" stroke-width="1"/><polyline points="441.11111111111114,448.8888888888889 435.5555555555556,453.05555555555554" fill="none" stroke="#656565" stroke-width="1"/><polyline points="435.5555555555556,453.05555555555554 435.5555555555556,455.83333333333337" fill="none" stroke="#656565" stroke-width="1"/><polyline points="435.5555555555556,458.6111111111111 435.5555555555556,460" fill="none" stroke="#656565" stroke-width="1"/><polyline points="480,443.33333333333337 491.11111111111114,443.33333333333337" fill="none" stroke="#656565" stroke-width="1"/><polyline points="485.55555555555554,443.33333333333337 485.55555555555554,460" fill="none" stroke="#656565" stroke-width="1"/><polyline points="496.6666666666667,460 496.6666666666667,443.33333333333337" fill="none" stroke="#656565" stroke-width="1"/><polyline points="507.7777777777778,460 507.7777777777778,443.33333333333337" fill="none" stroke="#656565" stroke-width="1"/><polyline points="496.6666666666667,451.6666666666667 507.7777777777778,451.6666666666667" fill="none" stroke="#656565" stroke-width="1"/><polyline points="524.4444444444445,443.33333333333337 513.3333333333334,443.33333333333337" fill="none" stroke="#656565" stroke-width="1"/><polyline points="513.3333333333334,443.33333333333337 513.3333333333334,460" fill="none" stroke="#656565" stroke-width="1"/><polyline points="513.3333333333334,460 524.4444444444445,460" fill="none" stroke="#656565" stroke-width="1"/><polyline points="513.3333333333334,451.6666666666667 521.6666666666666,451.6666666666667" fill="none" stroke="#656565" stroke-width="1"/><polyline points="530,460 530,443.33333333333337" fill="none" stroke="#656565" stroke-width="1"/><polyline points="530,443.33333333333337 538.3333333333334,443.33333333333337" fill="none" stroke="#656565" stroke-width="1"/><polyline points="538.3333333333334,443.33333333333337 541.1111111111111,446.1111111111111" fill="none" stroke="#656565" stroke-width="1"/><polyline points="541.1111111111111,446.1111111111111 541.1111111111111,448.8888888888889" fill="none" stroke="#656565" stroke-width="1"/><polyline points="541.1111111111111,448.8888888888889 538.3333333333334,451.6666666666667" fill="none" stroke="#656565" stroke-width="1"/><polyline points="538.3333333333334,451.6666666666667 530,451.6666666666667" fill="none" stroke="#656565" stroke-width="1"/><polyline points="535.5555555555555,451.6666666666667 541.1111111111111,460" fill="none" stroke="#656565" stroke-width="1"/><polyline points="557.7777777777778,443.33333333333337 546.6666666666667,443.33333333333337" fill="none" stroke="#656565" stroke-width="1"/><polyline points="546.6666666666667,443.33333333333337 546.6666666666667,460" fill="none" stroke="#656565" stroke-width="1"/><polyline points="546.6666666666667,460 557.7777777777778,460" fill="none" stroke="#656565" stroke-width="1"/><polyline points="546.6666666666667,451.6666666666667 555,451.6666666666667" fill="none" stroke="#656565" stroke-width="1"/><polyline points="568.8888888888889,458.6111111111111 568.8888888888889,460" fill="none" stroke="#656565" stroke-width="1"/><polyline points="607.7777777777778,443.33333333333337 596.6666666666667,443.33333333333337" fill="none" stroke="#656565" stroke-width="1"/><polyline points="596.6666666666667,443.33333333333337 596.6666666666667,460" fill="none" stroke="#656565" stroke-width="1"/><polyline points="596.6666666666667,451.6666666666667 605,451.6666666666667" fill="none" stroke="#656565" stroke-width="1"/><polyline points="616.1111111111111,443.33333333333337 621.6666666666667,443.33333333333337" fill="none" stroke="#656565" stroke-width="1"/><polyline points="618.8888888888889,443.33333333333337 618.8888888888889,460" fill="none" stroke="#656565" stroke-width="1"/><polyline points="616.1111111111111,460 621.6666666666667,460" fill="none" stroke="#656565" stroke-width="1"/><polyline points="630,460 641.1111111111111,443.33333333333337" fill="none" stroke="#656565" stroke-width="1"/><polyline points="630,443.33333333333337 641.1111111111111,460" fill="none" stroke="#656565" stroke-width="1"/><polyline points="657.7777777777778,443.33333333333337 646.6666666666667,443.33333333333337" fill="none" stroke="#656565" stroke-width="1"/><polyline points="646.6666666666667,443.33333333333337 646.6666666666667,460" fill="none" stroke="#656565" stroke-width="1"/><polyline points="646.6666666666667,460 657.7777777777778,460" fill="none" stroke="#656565" stroke-width="1"/><polyline points="646.6666666666667,451.6666666666667 655,451.6666666666667" fill="none" stroke="#656565" stroke-width="1"/><polyline points="663.3333333333334,460 663.3333333333334,443.33333333333337" fill="none" stroke="#656565" stroke-width="1"/><polyline points="663.3333333333334,443.33333333333337 670.2777777777778,443.33333333333337" fill="none" stroke="#656565" stroke-width="1"/><polyline points="670.2777777777778,443.33333333333337 674.4444444444446,447.5" fill="none" stroke="#656565" stroke-width="1"/><polyline points="674.4444444444446,447.5 674.4444444444446,455.83333333333337" fill="none" stroke="#656565" stroke-width="1"/><polyline points="674.4444444444446,455.83333333333337 670.2777777777778,460" fill="none" stroke="#656565" stroke-width="1"/><polyline points="670.2777777777778,460 663.3333333333334,460" fill="none" stroke="#656565" stroke-width="1"/><polyline points="685.5555555555557,458.6111111111111 685.5555555555557,460" fill="none" stroke="#656565" stroke-width="1"/><polygon points="353.3333333333333,153.33333333333331 440,153.33333333333331 440,120 353.3333333333333,120 353.3333333333333,153.33333333333331" fill="#a59052"/><polyline points="353.3333333333333,153.33333333333331 440,153.33333333333331 440,120 353.3333333333333,120 353.3333333333333,153.33333333333331" fill="none" stroke="#a59052" stroke-width="1"/><polyline points="366.6666666666667,133.33333333333331 366.6666666666667,144.44444444444446" fill="none" stroke="#656565" stroke-width="1"/><polyline points="366.6666666666667,144.44444444444446 368.8888888888889,146.66666666666666" fill="none" stroke="#656565" stroke-width="1"/><polyline points="368.8888888888889,146.66666666666666 373.3333333333333,146.66666666666666" fill="none" stroke="#656565" stroke-width="1"/><polyline points="373.3333333333333,146.66666666666666 375.55555555555554,144.44444444444446" fill="none" stroke="#656565" stroke-width="1"/><polyline points="375.55555555555554,144.44444444444446 375.55555555555554,133.33333333333331" fill="none" stroke="#656565" stroke-width="1"/><polyline points="380,146.66666666666666 380,133.33333333333331" fill="none" stroke="#656565" stroke-width="1"/><polyline points="380,133.33333333333331 388.8888888888889,146.66666666666666" fill="none" stroke="#656565" stroke-width="1"/><polyline points="388.8888888888889,146.66666666666666 388.8888888888889,133.33333333333331" fill="none" stroke="#656565" stroke-width="1"/><polyline points="393.3333333333333,146.66666666666666 393.3333333333333,133.33333333333331" fill="none" stroke="#656565" stroke-width="1"/><polyline points="393.3333333333333,133.33333333333331 398.8888888888889,133.33333333333331" fill="none" stroke="#656565" stroke-width="1"/><polyline points="398.8888888888889,133.33333333333331 402.22222222222223,136.66666666666666" fill="none" stroke="#656565" stroke-width="1"/><polyline points="402.22222222222223,136.66666666666666 402.22222222222223,143.33333333333331" fill="none" stroke="#656565" stroke-width="1"/><polyline points="402.22222222222223,143.33333333333331 398.8888888888889,146.66666666666666" fill="none" stroke="#656565" stroke-width="1"/><polyline points="398.8888888888889,146.66666666666666 393.3333333333333,146.66666666666666" fill="none" stroke="#656565" stroke-width="1"/><polyline points="408.8888888888889,146.66666666666666 406.6666666666667,144.44444444444446" fill="none" stroke="#656565" stroke-width="1"/><polyline points="406.6666666666667,144.44444444444446 406.6666666666667,135.55555555555551" fill="none" stroke="#656565" stroke-width="1"/><polyline points="406.6666666666667,135.55555555555551 408.8888888888889,133.33333333333331" fill="none" stroke="#656565" stroke-width="1"/><polyline points="408.8888888888889,133.33333333333331 413.3333333333333,133.33333333333331" fill="none" stroke="#656565" stroke-width="1"/><polyline points="413.3333333333333,133.33333333333331 415.55555555555554,135.55555555555551" fill="none" stroke="#656565" stroke-width="1"/><polyline points="415.55555555555554,135.55555555555551 415.55555555555554,144.44444444444446" fill="none" stroke="#656565" stroke-width="1"/><polyline points="415.55555555555554,144.44444444444446 413.3333333333333,146.66666666666666" fill="none" stroke="#656565" stroke-width="1"/><polyline points="413.3333333333333,146.66666666666666 408.8888888888889,146.66666666666666" fill="none" stroke="#656565" stroke-width="1"/></svg>
