EXTENTS,1
0.000000,120.000000,0.000000,90.000000
LIMITS,1
0.000000,120.000000,0.000000,90.000000
BASE,1
0.000000,0.000000
DWGVIEW,1
60.000000,45.000000,97.200000
MODERES,1
0,1.000000
MODEGRID,1
0,0.000000
MODEORTHO,1
0
MODEFILL,1
1
TXTSIZE,1
0.200000
TRACEWID,1
0.050000
LAYER,1
1
LAYERC,1
255,7,251,153,13,113,43,255,255,255,255,255,255,255,255,255
255,255,255,255,255,255,255,255,255,255,255,255,255,255,255,255
255,255,255,255,255,255,255,255,255,255,255,255,255,255,255,255
255,255,255,255,255,255,255,255,255,255,255,255,255,255,255,255
255,255,255,255,255,255,255,255,255,255,255,255,255,255,255,255
255,255,255,255,255,255,255,255,255,255,255,255,255,255,255,255
255,255,255,255,255,255,255,255,255,255,255,255,255,255,255,255
255,255,255,255,255,255,255,255,255,255,255,255,255,255,255,255
SOLID,1
0.000000,0.000000,120.000000,0.000000
0.000000,90.000000,120.000000,90.000000
SOLID,2
5.000000,5.000000,115.000000,5.000000
5.000000,85.000000,115.000000,85.000000
SOLID,1
6.000000,6.000000,114.000000,6.000000
6.000000,84.000000,114.000000,84.000000
SOLID,3
9.000000,28.000000,57.000000,28.000000
9.000000,65.000000,57.000000,65.000000
SOLID,5
63.000000,28.000000,111.000000,28.000000
63.000000,65.000000,111.000000,65.000000
TEXT,2
11.000000,74.000000,3.000000,0.000000
ONE SMALL EDIT...
TEXT,2
69.000000,74.000000,3.000000,0.000000
UNDO
TEXT,2
25.000000,12.000000,4.000000,0.000000
UNDO FIXES EVERYTHING
LINE,2
15.000000,35.000000,45.000000,35.000000
LINE,2
15.000000,35.000000,15.000000,52.000000
LINE,2
45.000000,35.000000,45.000000,52.000000
LINE,2
15.000000,52.000000,30.000000,61.000000
LINE,2
30.000000,61.000000,45.000000,52.000000
SOLID,1
25.000000,35.000000,33.000000,35.000000
25.000000,45.000000,33.000000,45.000000
SOLID,1
18.000000,45.000000,23.000000,45.000000
18.000000,50.000000,23.000000,50.000000
SOLID,1
36.000000,45.000000,41.000000,45.000000
36.000000,50.000000,41.000000,50.000000
LINE,2
69.000000,35.000000,99.000000,35.000000
LINE,2
69.000000,35.000000,69.000000,52.000000
LINE,2
99.000000,35.000000,99.000000,52.000000
LINE,2
69.000000,52.000000,84.000000,61.000000
LINE,2
84.000000,61.000000,99.000000,52.000000
SOLID,1
79.000000,35.000000,87.000000,35.000000
79.000000,45.000000,87.000000,45.000000
SOLID,1
72.000000,45.000000,77.000000,45.000000
72.000000,50.000000,77.000000,50.000000
SOLID,1
90.000000,45.000000,95.000000,45.000000
90.000000,50.000000,95.000000,50.000000
SOLID,4
38.000000,35.000000,49.000000,29.000000
38.000000,56.000000,49.000000,53.000000
LINE,4
15.000000,52.000000,26.000000,61.000000
LINE,4
26.000000,61.000000,41.000000,44.000000
LINE,4
41.000000,44.000000,50.000000,58.000000
TEXT,2
17.000000,21.000000,2.500000,0.000000
WHY IS IT LIKE THIS?
TEXT,2
72.000000,21.000000,2.500000,0.000000
THERE. FIXED.
SOLID,6
53.000000,67.000000,66.000000,67.000000
53.000000,72.000000,66.000000,72.000000
TEXT,2
55.000000,68.000000,2.000000,0.000000
UNDO
